<?xml version="1.0" standalone="no"?>
<!DOCTYPE svg PUBLIC "-//W3C//DTD SVG 20010904//EN"
 "http://www.w3.org/TR/2001/REC-SVG-20010904/DTD/svg10.dtd">
<svg version="1.0" xmlns="http://www.w3.org/2000/svg"
 width="590.000000pt" height="585.000000pt" viewBox="0 0 590.000000 585.000000"
 preserveAspectRatio="xMidYMid meet">

<g transform="translate(0.000000,585.000000) scale(0.100000,-0.100000)"
fill="#000000" stroke="none">
<path d="M2791 5746 c-7 -8 -16 -27 -20 -42 -6 -22 -17 -30 -64 -45 -31 -10
-70 -28 -86 -40 -25 -18 -34 -20 -58 -11 -15 6 -46 13 -68 15 -22 3 -47 8 -56
12 -11 4 -29 -4 -50 -23 -19 -15 -52 -39 -74 -52 -79 -46 -140 -88 -160 -110
-11 -12 -50 -38 -87 -56 -72 -36 -90 -61 -38 -50 17 3 30 2 30 -3 0 -10 -102
-112 -159 -160 -62 -51 -52 -13 14 56 30 32 55 62 55 66 0 18 -90 -67 -126
-118 -20 -30 -39 -55 -41 -55 -11 0 33 79 62 111 64 71 36 55 -45 -26 -78 -78
-80 -81 -80 -128 0 -44 -4 -53 -51 -103 -29 -30 -58 -54 -65 -54 -7 0 -19 -10
-25 -22 -6 -13 -21 -33 -32 -45 -24 -27 -15 -43 14 -25 40 25 2 -25 -44 -58
-57 -40 -77 -78 -87 -156 -7 -57 -13 -71 -52 -114 -23 -26 -46 -48 -50 -49
-22 -3 -248 -190 -352 -291 -393 -382 -646 -815 -780 -1335 -48 -187 -86 -490
-86 -684 1 -542 168 -1089 476 -1554 l93 -141 3 59 3 60 45 21 c25 12 54 31
64 43 11 11 25 21 31 21 7 0 18 7 26 16 15 18 82 54 101 54 12 0 -123 -95
-147 -104 -5 -2 -6 -7 -2 -12 16 -17 162 73 169 104 5 25 202 207 268 249 41
26 104 53 170 73 167 50 153 38 195 153 21 56 48 120 61 142 24 42 74 184 74
211 0 9 -20 75 -44 147 -95 284 -130 427 -107 442 6 3 11 -2 11 -12 1 -10 7
-29 15 -43 13 -24 13 -24 10 15 -3 22 -6 91 -9 154 -4 98 -3 111 9 95 14 -18
15 -18 37 8 13 14 33 31 45 37 14 7 25 25 29 48 8 44 -11 198 -36 297 -10 39
-22 96 -25 126 -3 30 -8 74 -11 98 l-5 43 -19 -23 -18 -23 -13 43 c-10 33 -10
67 -1 155 12 125 6 190 -16 164 -7 -8 -14 -45 -16 -81 -2 -49 -7 -72 -20 -84
-14 -13 -20 -14 -23 -4 -3 7 -11 19 -19 26 -10 11 -12 28 -7 63 5 39 13 55 48
88 23 22 55 59 70 83 33 51 61 55 105 15 25 -23 34 -45 51 -118 53 -234 115
-386 174 -431 64 -49 158 -66 360 -66 197 0 334 17 432 54 113 43 247 217 314
408 44 125 51 132 142 128 l72 -3 53 -106 c57 -114 63 -149 48 -274 -7 -57 -6
-62 28 -115 29 -43 36 -64 36 -102 l0 -48 -20 20 c-11 11 -20 34 -21 53 -1 28
-2 29 -8 8 -3 -13 -2 -64 3 -113 15 -152 -15 -227 -103 -257 -19 -6 -43 -11
-54 -11 -19 0 -97 31 -192 76 -37 18 -67 24 -116 24 -76 0 -88 9 -96 69 -5 35
-1 43 33 80 22 23 59 51 84 64 40 20 45 26 45 57 0 52 -34 52 -113 0 -50 -32
-68 -50 -84 -87 -36 -82 -8 -193 62 -239 20 -13 46 -38 59 -54 18 -25 29 -30
62 -30 32 0 46 6 69 32 l29 32 56 -29 c48 -24 63 -27 112 -22 31 3 75 1 98 -5
48 -13 82 -7 112 22 24 21 58 27 68 10 3 -5 -3 -10 -15 -10 -12 0 -31 -5 -43
-12 -19 -10 -15 -13 43 -29 60 -16 65 -16 77 -1 14 19 17 70 5 89 -4 6 -23 13
-42 15 l-35 3 39 20 c57 29 75 59 78 130 3 69 -12 107 -72 179 -23 28 -47 71
-56 102 -8 29 -20 56 -25 59 -5 4 -9 11 -9 16 0 5 22 -8 50 -30 65 -51 119
-68 264 -81 137 -12 233 -6 361 22 232 51 318 112 361 256 35 115 74 277 74
309 0 35 24 93 39 93 14 0 20 -39 7 -43 -8 -3 -8 -13 2 -39 16 -46 15 -73 -3
-88 -13 -11 -15 -7 -15 24 0 60 -15 41 -29 -36 -7 -40 -19 -95 -27 -122 -17
-61 -18 -113 -1 -119 9 -3 9 -9 -2 -30 -14 -27 -17 -52 -12 -122 4 -46 -20
-175 -31 -175 -5 0 -8 -11 -8 -25 0 -42 -23 -115 -37 -115 -7 0 -13 -5 -13
-10 0 -6 -11 -15 -24 -21 -24 -11 -76 -111 -90 -173 -4 -15 -16 -40 -26 -55
-11 -14 -27 -62 -36 -106 -8 -44 -22 -109 -30 -145 -8 -36 -14 -75 -14 -87 0
-13 -11 -52 -25 -89 -25 -65 -25 -103 -2 -132 7 -9 13 -10 24 0 26 21 41 62
53 143 21 140 60 264 104 330 49 72 72 121 81 169 4 20 11 39 16 42 5 3 9 16
9 30 0 13 5 24 10 24 6 0 10 14 10 32 0 20 4 28 9 23 6 -6 12 -52 15 -104 4
-52 11 -99 16 -106 5 -6 14 -36 19 -66 l9 -54 2 45 c2 37 4 39 8 15 2 -16 -1
-59 -7 -95 -6 -36 -17 -116 -26 -178 -11 -84 -22 -127 -45 -172 -16 -33 -30
-65 -30 -72 0 -32 -52 -137 -89 -180 -23 -25 -41 -51 -41 -57 0 -6 -15 -28
-33 -48 -18 -21 -44 -55 -56 -76 -36 -60 -88 -118 -153 -169 -86 -69 -91 -71
-123 -46 -29 22 -28 18 -11 168 5 46 -3 60 -29 48 -28 -12 -45 -53 -52 -118
-5 -52 -47 -146 -90 -206 -71 -95 -240 -193 -368 -214 -27 -4 -96 -18 -152
-29 -70 -15 -138 -21 -221 -21 -111 0 -130 3 -229 35 -159 52 -205 91 -292
245 -30 53 -38 60 -63 58 -15 -1 -28 -6 -28 -11 0 -19 61 -115 102 -162 72
-82 251 -183 354 -199 99 -16 387 -4 421 17 5 3 61 15 125 26 101 17 126 26
199 67 46 26 98 60 114 74 17 15 41 34 55 43 14 9 36 25 50 34 23 16 22 14 -6
-22 l-32 -40 26 -19 25 -19 -32 -29 c-17 -15 -39 -28 -48 -28 -8 0 -21 -6 -27
-14 -8 -10 -18 -12 -33 -5 -25 9 -31 29 -10 29 8 0 14 6 14 13 0 7 -39 -6
-101 -36 -111 -54 -163 -68 -340 -93 -82 -12 -113 -20 -102 -26 51 -29 -27
-58 -153 -58 -119 0 -193 13 -267 47 -47 21 -66 25 -113 20 -46 -5 -60 -11
-78 -34 l-23 -28 38 -8 c20 -4 66 -17 102 -28 36 -11 121 -27 190 -35 289 -34
300 -34 395 -18 106 18 244 58 299 86 21 11 77 33 125 48 47 16 109 41 136 56
28 14 68 36 89 47 22 12 52 33 66 49 15 15 32 28 37 28 6 0 13 9 16 20 3 11
13 23 24 27 10 3 21 12 26 19 4 7 14 11 22 8 8 -4 15 -1 15 6 0 8 4 9 13 3 6
-5 19 -9 27 -8 8 1 27 -5 41 -13 24 -14 27 -21 32 -102 7 -88 -4 -169 -38
-290 -8 -30 -20 -76 -26 -102 -6 -26 -16 -46 -22 -45 -8 1 -12 -23 -13 -78 -1
-64 -9 -101 -38 -184 -38 -111 -43 -135 -25 -129 13 4 44 79 65 158 8 30 26
74 40 97 13 23 24 55 24 71 0 29 12 69 69 222 86 231 84 222 71 330 -6 54 -15
112 -20 129 -7 27 -2 97 26 317 4 37 11 54 21 54 8 0 11 -5 7 -11 -6 -10 36
-108 103 -242 17 -33 23 -56 18 -76 -5 -25 0 -35 36 -70 23 -22 48 -57 56 -78
18 -52 16 -53 -17 -13 l-30 34 0 -26 c0 -30 24 -63 59 -81 18 -9 29 -30 43
-77 11 -36 23 -74 28 -85 15 -33 32 -107 26 -112 -9 -9 -45 41 -46 63 0 11 -6
28 -13 38 -11 15 -13 11 -11 -31 1 -52 20 -93 43 -93 8 0 22 -7 31 -15 27 -24
110 -63 109 -51 0 6 -9 29 -20 51 -19 39 -19 39 -15 8 4 -23 2 -31 -7 -27 -21
8 -38 43 -52 108 -12 58 -56 212 -70 247 -9 23 10 33 25 14 7 -8 21 -15 31
-15 11 0 61 -43 117 -101 66 -69 98 -96 100 -85 2 9 12 16 22 16 11 0 26 13
35 30 9 17 27 33 41 36 28 7 96 -10 116 -29 7 -7 40 -19 73 -27 55 -14 60 -18
63 -44 2 -16 -2 -32 -10 -37 -11 -7 -11 -9 0 -9 9 0 12 -10 10 -30 -1 -16 2
-29 7 -28 26 6 165 281 229 452 211 563 242 1160 90 1720 -62 232 -154 457
-262 646 -30 52 -55 101 -55 108 0 6 -4 12 -8 12 -4 0 -25 26 -46 58 -91 138
-188 258 -331 404 -85 86 -178 176 -208 199 -33 25 -57 52 -60 68 -9 42 -33
98 -33 79 -1 -13 -9 -18 -29 -18 -24 0 -32 8 -50 44 -12 24 -22 48 -22 55 0
18 38 13 50 -6 10 -15 10 -14 5 7 -4 14 -9 52 -11 85 l-5 60 20 -35 c14 -23
20 -29 21 -17 0 22 -24 70 -56 113 -29 38 -64 144 -64 193 0 21 7 46 15 57 26
35 17 63 -50 152 l-65 87 0 68 0 69 -62 64 c-43 45 -68 64 -86 64 -14 0 -34 8
-44 17 -16 14 -23 15 -38 5 -25 -16 -44 -7 -75 34 -21 27 -33 34 -62 34 l-35
0 6 -57 c5 -41 4 -54 -3 -43 -6 8 -11 22 -11 31 0 23 -30 56 -57 64 -21 6 -22
4 -16 -62 4 -56 3 -71 -11 -82 -14 -12 -16 -8 -16 43 0 93 -41 153 -148 215
-29 17 -55 31 -58 31 -3 0 9 -17 27 -38 52 -62 99 -219 70 -236 -7 -5 -11 5
-11 28 0 45 -63 179 -97 206 -41 32 -53 26 -53 -25 0 -47 12 -77 55 -141 22
-33 25 -46 23 -123 l-1 -86 -7 75 c-7 80 -28 133 -60 150 -11 6 -29 28 -40 50
-22 42 -117 120 -147 120 -10 0 -31 -10 -46 -22 l-27 -21 44 -47 c64 -68 98
-141 103 -220 4 -60 3 -64 -11 -46 -9 11 -16 32 -16 46 0 108 -83 216 -214
279 -99 49 -128 57 -124 39 2 -9 -10 -13 -45 -11 -60 2 -52 -14 12 -23 53 -7
80 -19 68 -30 -4 -4 -31 -1 -60 6 -36 8 -80 10 -133 5 -43 -3 -104 -8 -134 -9
-30 -2 -59 -4 -65 -6 -16 -4 46 -18 90 -19 24 -1 60 -13 90 -31 28 -16 65 -36
83 -45 17 -8 32 -23 32 -32 0 -9 14 -38 31 -65 17 -27 29 -51 27 -54 -3 -2
-17 14 -32 36 -14 22 -36 42 -49 44 -24 5 -174 25 -272 36 -39 5 -50 8 -30 10
61 6 191 -3 228 -16 22 -8 48 -14 59 -14 17 0 18 3 8 15 -7 8 -17 15 -22 15
-5 0 -29 14 -53 30 -59 40 -142 57 -187 36 -71 -31 -106 -39 -188 -41 -47 -1
-96 -5 -110 -9 -18 -5 -16 -1 10 13 19 11 44 20 56 21 12 0 51 16 87 35 36 19
73 35 83 35 9 0 29 11 46 25 16 14 42 25 56 25 15 1 54 7 87 15 33 8 90 15
127 15 37 0 69 4 72 8 18 29 -310 46 -333 18z m314 -126 l40 -20 -79 6 c-88 6
-114 15 -76 25 43 12 74 9 115 -11z m-675 -53 c0 -18 -12 -28 -62 -50 -34 -15
-63 -25 -65 -23 -2 2 10 14 27 27 17 13 43 34 58 46 34 28 42 28 42 0z m876
-45 c-8 -7 -25 8 -37 31 -11 21 -10 21 15 -2 14 -14 24 -26 22 -29z m-41 -3
c14 -22 -3 -18 -26 7 -23 25 -23 26 -2 15 12 -6 25 -16 28 -22z m-611 -29 c5
-5 -17 -7 -50 -4 -43 4 -55 3 -44 -5 18 -13 20 -12 -60 -16 -79 -3 -196 -36
-269 -77 -29 -16 -55 -28 -56 -26 -2 2 17 20 42 41 52 42 113 63 228 79 44 5
96 14 115 18 37 9 79 4 94 -10z m501 -17 c41 -44 53 -73 15 -38 -30 29 -56 65
-46 65 3 0 17 -12 31 -27z m-277 -3 c31 -11 63 -28 69 -37 16 -21 10 -27 -14
-14 -10 6 -49 24 -88 41 -80 34 -56 41 33 10z m512 -85 c0 -62 -2 -67 -14 -50
-23 34 -27 63 -16 106 16 59 30 33 30 -56z m-521 10 c35 -30 71 -50 109 -61
103 -28 120 -35 125 -47 3 -7 20 -14 38 -15 19 -1 41 -11 49 -21 8 -10 26 -22
39 -26 23 -7 23 -7 19 59 -2 36 -1 63 2 58 4 -4 23 -32 43 -63 33 -51 42 -58
87 -69 33 -8 84 -10 148 -5 76 5 106 3 141 -9 24 -9 62 -16 85 -16 22 -1 52
-7 66 -15 36 -21 70 -18 97 7 31 29 78 28 107 -3 13 -13 44 -64 70 -112 42
-80 53 -113 70 -215 l6 -33 -38 28 c-20 15 -39 30 -42 33 -3 3 -24 20 -48 38
-34 27 -46 31 -57 22 -11 -9 -17 -7 -27 9 -7 12 -21 21 -31 21 -10 0 -16 4
-13 9 8 13 -48 0 -59 -13 -5 -7 -18 -15 -27 -19 -18 -6 -15 -37 3 -37 5 0 9
-6 9 -12 1 -22 43 -64 78 -78 17 -7 32 -17 32 -23 0 -5 6 -15 14 -21 22 -18
66 -156 69 -218 3 -50 11 -67 55 -132 29 -41 52 -79 52 -84 0 -27 60 -140 83
-155 14 -9 46 -43 72 -76 48 -61 90 -87 124 -78 16 4 24 -5 41 -44 16 -39 59
-165 60 -176 0 -2 -36 -3 -80 -3 -122 0 -172 26 -216 111 -23 47 -39 59 -75
59 -26 0 -24 -15 9 -46 l27 -26 -25 5 c-14 3 -35 9 -47 12 -17 6 -23 3 -23 -9
0 -9 5 -16 10 -16 6 0 10 -4 10 -9 0 -5 -24 -14 -52 -19 -55 -11 -131 -30
-161 -41 -10 -3 31 -4 90 -3 120 4 132 -9 20 -19 -187 -18 -405 -70 -532 -126
-167 -74 -181 -78 -305 -78 -101 0 -129 4 -229 34 -141 41 -189 49 -366 62
-97 7 -179 6 -270 -2 -179 -15 -279 -18 -263 -8 7 5 27 9 45 9 18 0 58 7 90
15 36 10 107 15 193 16 80 0 127 4 115 9 -25 10 -132 30 -171 31 -17 1 -7 5
26 10 30 5 66 11 80 15 l25 6 -25 19 -25 19 32 0 c20 0 36 7 42 18 8 14 24 17
91 17 75 -1 79 0 54 13 -22 12 -38 12 -88 3 -34 -6 -85 -16 -115 -22 -29 -5
-65 -16 -80 -24 l-26 -14 30 -1 30 -1 -25 -20 c-21 -18 -33 -20 -83 -15 -37 4
-56 2 -52 -4 3 -6 23 -11 43 -11 37 -1 37 -1 -8 -9 -25 -4 -62 -15 -84 -24
-46 -19 -56 -20 -56 -3 0 26 51 88 70 85 11 -2 20 2 22 7 2 6 -11 11 -29 13
-28 3 -42 -8 -140 -107 -92 -93 -114 -110 -148 -116 -22 -3 -87 -18 -144 -31
-57 -14 -111 -22 -121 -19 -19 6 -30 96 -30 251 0 75 2 84 30 119 17 21 30 46
30 56 0 10 8 23 18 28 24 13 82 150 89 212 3 27 9 49 12 49 4 0 8 10 8 22 2
16 0 19 -6 9 -10 -16 -31 -6 -31 15 0 8 -7 14 -15 14 -8 0 -17 12 -21 28 -10
46 -13 52 -28 52 -8 0 -28 -12 -45 -26 -34 -29 -41 -20 -13 17 31 41 62 99 53
99 -5 0 -28 -16 -51 -35 -50 -42 -58 -44 -34 -7 45 69 92 115 147 141 80 38
91 29 72 -59 -12 -58 -12 -67 2 -82 20 -22 43 -23 43 -3 0 9 10 29 21 44 25
34 32 132 11 153 -10 10 -14 10 -21 0 -7 -11 -11 -10 -24 2 -12 13 -21 14 -44
6 -15 -6 -32 -17 -38 -23 -5 -7 -40 -29 -76 -49 -86 -49 -219 -196 -219 -245
0 -11 -15 -49 -33 -84 -28 -52 -35 -80 -40 -151 -4 -47 -11 -96 -15 -108 -8
-22 -9 -21 -26 14 -12 26 -15 50 -11 84 14 108 28 172 41 182 7 7 16 33 20 58
19 138 103 272 178 286 19 4 45 15 59 26 30 24 45 26 26 4 -7 -8 -34 -26 -60
-39 -26 -14 -63 -44 -83 -68 -41 -50 -86 -142 -86 -176 0 -18 16 2 56 70 68
115 83 132 157 171 32 17 75 47 96 67 21 20 58 49 81 65 26 18 63 61 96 110
29 45 63 93 76 107 33 39 139 106 195 125 79 27 96 34 91 39 -3 3 -25 -2 -49
-10 l-44 -15 24 20 c13 11 30 20 39 20 8 0 24 8 35 18 13 12 46 20 106 25 116
11 136 11 211 3 l65 -8 -35 22 c-32 21 -33 23 -15 36 22 17 49 18 76 4 11 -6
23 -8 28 -6 8 6 2 46 -14 91 -5 16 -3 15 14 -5 11 -14 23 -38 27 -55 9 -43 19
-52 69 -59 24 -4 60 -18 79 -31 37 -25 47 -28 84 -26 16 1 22 7 22 24 0 27
-26 67 -44 67 -8 0 -19 7 -26 15 -10 13 -9 15 9 15 32 0 87 -26 128 -59 53
-44 52 -30 -2 27 -34 36 -64 56 -107 72 -59 21 -120 66 -139 101 -16 31 4 22
60 -26z m-308 11 c-7 -8 -45 -15 -109 -19 -53 -3 -110 -10 -126 -16 -40 -16
-45 -6 -6 14 42 22 100 33 184 34 56 1 66 -1 57 -13z m769 -75 c-1 -10 -6 -7
-15 9 -19 33 -18 50 0 26 8 -11 15 -27 15 -35z m-1086 -52 c-64 -34 -144 -96
-144 -114 0 -2 15 1 32 6 52 14 63 11 35 -11 -22 -17 -88 -50 -100 -50 -2 0 7
22 19 49 38 78 147 160 213 161 17 0 -1 -13 -55 -41z m220 35 c9 -3 16 -10 16
-15 0 -14 -54 -10 -76 6 -18 14 -17 14 13 15 17 0 38 -3 47 -6z m-206 -101
c-10 -2 -26 -2 -35 0 -10 3 -2 5 17 5 19 0 27 -2 18 -5z m2278 -545 c13 -39
24 -74 24 -77 -2 -20 -70 135 -70 157 1 24 2 25 11 9 6 -10 21 -50 35 -89z
m-53 -176 c31 -33 57 -63 57 -66 0 -3 -24 11 -52 32 -62 44 -158 141 -158 160
0 17 76 -46 153 -126z m-116 51 c16 -21 37 -51 47 -68 11 -16 27 -38 38 -48
24 -24 13 -40 -23 -35 -20 3 -29 0 -29 -9 0 -7 -4 -13 -10 -13 -16 0 -31 38
-28 73 1 22 -6 44 -20 62 -22 28 -30 75 -13 75 5 0 22 -17 38 -37z m-36 -123
c5 -24 8 -45 5 -47 -8 -9 -36 56 -36 84 0 39 19 16 31 -37z m358 -282 c5 -40
8 -74 6 -76 -2 -2 -6 13 -10 34 -3 22 -12 59 -20 84 -8 25 -15 56 -15 70 1 46
28 -32 39 -112z m-3244 24 c3 -21 1 -50 -5 -66 -5 -15 -7 -32 -4 -37 7 -13 -4
-59 -14 -59 -4 0 -14 21 -21 46 -12 41 -12 53 3 100 9 30 21 54 26 54 4 0 11
-17 15 -38z m2365 -439 c-56 -9 -209 -57 -272 -84 -72 -32 -119 -40 -83 -15
56 38 272 104 340 104 24 -1 30 -2 15 -5z m437 -18 c20 -9 60 -35 89 -60 59
-51 84 -106 84 -187 0 -26 7 -65 16 -87 15 -38 14 -58 -10 -161 -14 -58 34 62
54 135 18 68 20 89 11 135 -5 30 -9 79 -9 109 2 45 -2 56 -23 72 -13 10 -30
19 -36 19 -20 0 -15 20 5 20 29 0 70 -51 81 -100 33 -144 -22 -411 -106 -510
-34 -42 -84 -65 -184 -89 -148 -34 -203 -41 -320 -41 -285 1 -395 88 -465 373
-32 129 -28 171 23 221 74 72 156 100 453 155 81 16 297 13 337 -4z m-1537
-54 c30 -7 80 -17 110 -23 30 -7 73 -18 95 -25 65 -23 174 -44 260 -52 l80 -7
-50 -9 c-45 -7 -95 -2 -193 22 -22 5 -22 3 12 -41 38 -50 44 -83 27 -144 -13
-43 -6 -41 18 7 25 48 78 72 159 70 31 -1 44 -4 27 -6 -100 -11 -117 -16 -145
-39 -16 -14 -38 -44 -48 -67 -39 -84 -53 -112 -47 -92 4 11 9 65 12 121 9 156
-20 199 -158 230 -124 28 -187 35 -364 40 -158 5 -256 -2 -455 -32 l-35 -5 27
16 c16 8 79 23 140 31 62 9 115 18 118 21 9 9 355 -4 410 -16z m-70 -51 c194
-16 328 -63 357 -125 15 -32 15 -41 -1 -127 -39 -201 -125 -357 -226 -408 -73
-37 -191 -60 -370 -72 -167 -10 -179 -10 -260 11 -47 11 -96 29 -110 40 -69
51 -124 195 -135 354 -15 215 4 242 210 302 52 16 196 28 370 33 28 1 102 -3
165 -8z m-1260 -205 c4 -3 11 -18 15 -34 5 -23 0 -40 -22 -72 -22 -34 -29 -59
-35 -123 -4 -45 -10 -103 -13 -131 -4 -36 -3 -46 4 -35 6 8 11 27 11 41 0 27
22 54 33 42 4 -3 7 -1 7 5 0 7 5 12 10 12 6 0 10 -19 10 -41 0 -57 36 -128 69
-135 14 -3 31 -7 38 -9 17 -6 27 -109 15 -168 -14 -73 2 -348 27 -470 12 -55
23 -103 26 -108 11 -16 -15 -47 -44 -54 -52 -11 -116 36 -146 107 -11 27 -15
72 -15 158 0 89 -5 139 -20 193 -11 40 -27 143 -34 228 -8 84 -22 179 -30 209
-9 30 -16 85 -16 121 0 36 -5 103 -11 149 -11 83 -11 84 13 105 24 21 82 26
108 10z m3296 -30 c7 -30 -2 -59 -16 -50 -13 8 -13 75 0 75 5 0 12 -11 16 -25z
m129 -229 c0 -106 4 -147 14 -159 9 -11 11 -30 7 -59 -19 -128 -18 -196 3
-253 24 -64 26 -95 6 -149 -31 -88 -95 -156 -145 -156 -18 0 -19 6 -14 68 4
37 9 83 13 102 4 19 4 109 0 200 -4 91 -8 219 -8 286 -1 115 0 122 23 143 14
13 26 39 30 63 10 59 17 65 34 27 l16 -34 4 39 c7 82 17 17 17 -118z m-1226
-450 c21 -26 16 -77 -9 -98 -13 -10 -30 -17 -39 -16 -33 7 -5 128 29 128 4 0
13 -6 19 -14z m778 -1218 c-3 -7 -5 -2 -5 12 0 14 2 19 5 13 2 -7 2 -19 0 -25z
m20 -400 c-3 -7 -5 -2 -5 12 0 14 2 19 5 13 2 -7 2 -19 0 -25z"/>
<path d="M3372 5440 c0 -14 2 -19 5 -12 2 6 2 18 0 25 -3 6 -5 1 -5 -13z"/>
<path d="M3713 3970 c-13 -5 -23 -17 -23 -25 0 -14 9 -15 58 -10 37 4 52 3 43
-3 -25 -18 -1 -32 57 -34 l57 -2 -51 -3 c-38 -3 -57 -10 -74 -28 -20 -22 -21
-25 -6 -31 9 -3 29 -3 44 1 15 3 43 8 62 11 61 8 140 27 140 34 0 13 -46 49
-96 74 -41 21 -66 26 -120 25 -38 0 -79 -4 -91 -9z"/>
<path d="M3643 3580 c-39 -23 -83 -56 -98 -75 -28 -37 -23 -45 13 -19 30 20
28 13 -9 -40 -17 -24 -28 -49 -25 -55 4 -6 31 -11 59 -11 29 -1 71 -5 95 -9
31 -6 42 -5 42 4 0 17 -22 24 -92 32 -66 7 -74 18 -22 32 20 6 44 16 53 24 9
8 26 18 39 21 19 7 22 4 22 -23 0 -16 4 -41 10 -55 9 -24 12 -25 97 -25 48 0
94 4 104 9 25 14 42 65 35 105 -10 52 22 45 98 -22 33 -30 49 -52 27 -39 -5 3
-12 -6 -15 -20 -8 -31 -47 -94 -69 -113 -9 -7 -40 -18 -69 -25 -58 -13 -129
-3 -200 28 -21 9 -39 16 -42 16 -8 0 -36 -62 -31 -70 6 -10 42 -21 146 -45
l75 -18 115 55 c63 31 138 66 167 78 28 12 52 26 52 31 0 5 14 24 30 43 l31
35 -23 47 c-16 34 -29 48 -44 49 -12 1 -36 14 -54 29 -69 57 -82 60 -270 63
l-175 3 -72 -40z m330 16 c51 -12 104 -42 93 -53 -2 -3 -25 3 -50 11 -29 10
-81 16 -137 16 -82 0 -95 -3 -159 -35 -38 -19 -73 -35 -76 -35 -22 0 50 57
101 81 69 32 137 36 228 15z m-123 -121 c0 -8 -4 -15 -9 -15 -13 0 -22 16 -14
24 11 11 23 6 23 -9z"/>
<path d="M3890 3125 c-14 -8 -38 -14 -55 -15 -27 0 -28 -1 -13 -16 19 -19 92
-29 143 -20 l36 7 -18 29 c-13 22 -20 27 -30 18 -9 -7 -13 -7 -13 1 0 15 -20
13 -50 -4z"/>
<path d="M2368 3505 c-101 -18 -152 -41 -218 -102 -45 -42 -61 -50 -82 -46
-23 4 -28 1 -34 -21 -11 -46 5 -99 44 -138 39 -41 58 -46 101 -23 26 13 41 39
41 75 0 11 -3 11 -12 2 -22 -22 -30 -12 -12 16 27 42 106 112 126 112 5 0 8
-16 8 -35 0 -22 8 -43 21 -56 19 -19 28 -21 83 -15 33 4 75 11 93 17 28 9 32
15 35 52 4 52 22 58 89 26 l49 -24 -57 -15 c-42 -11 -59 -20 -61 -34 -3 -14 0
-17 13 -12 9 3 45 6 80 6 53 0 69 4 92 24 l28 24 -22 43 c-26 52 -77 103 -116
118 -46 18 -206 21 -289 6z m190 -35 c31 -11 66 -30 77 -41 20 -22 20 -22 0
-14 -105 38 -133 43 -204 35 -55 -6 -93 -18 -152 -48 -113 -58 -104 -38 16 35
96 58 167 67 263 33z m-97 -103 c-1 -12 -15 -9 -19 4 -3 6 1 10 8 8 6 -3 11
-8 11 -12z"/>
<path d="M2873 3462 c-18 -2 -33 -4 -33 -6 0 -1 14 -29 30 -61 37 -71 37 -82
5 -130 -28 -41 -26 -58 4 -31 32 29 54 102 49 162 -5 63 -11 71 -55 66z"/>
<path d="M2633 3269 c-37 -11 -116 -100 -111 -126 5 -25 47 -28 116 -7 31 9
67 16 80 16 13 -1 33 3 44 9 16 9 19 8 13 -2 -6 -9 -3 -11 9 -6 10 4 20 7 22
7 2 0 4 5 4 11 0 5 -4 8 -9 5 -5 -4 -7 3 -4 15 4 14 0 22 -13 25 -11 3 -28 18
-39 35 -21 31 -50 36 -112 18z m157 -63 c0 -3 -4 -8 -10 -11 -5 -3 -10 -1 -10
4 0 6 5 11 10 11 6 0 10 -2 10 -4z"/>
<path d="M1393 2495 c0 -27 2 -38 4 -22 2 15 2 37 0 50 -2 12 -4 0 -4 -28z"/>
<path d="M2070 2163 c0 -9 9 -56 19 -103 11 -47 28 -125 40 -175 11 -49 28
-108 37 -130 l17 -40 7 31 c4 17 10 35 13 41 8 12 -12 122 -24 138 -4 6 -13
42 -19 80 -7 39 -14 80 -16 92 -4 24 -51 83 -65 83 -5 0 -9 -8 -9 -17z"/>
<path d="M3815 2150 c-154 -41 -180 -43 -475 -46 -162 -2 -333 -8 -380 -13
-172 -20 -353 -10 -384 21 -26 27 -84 42 -102 27 -27 -22 2 -94 35 -86 17 4
125 -34 175 -61 21 -11 68 -19 146 -24 63 -4 130 -10 149 -14 20 -4 36 -2 40
4 3 6 28 20 55 31 65 28 150 27 248 -3 67 -21 86 -23 143 -15 36 5 95 13 131
18 36 5 73 16 82 24 9 9 53 40 96 69 44 29 82 59 84 66 4 13 1 14 -43 2z"/>
<path d="M2958 2103 c7 -3 16 -2 19 1 4 3 -2 6 -13 5 -11 0 -14 -3 -6 -6z"/>
<path d="M1773 1450 c3 -19 9 -71 12 -115 10 -123 34 -243 59 -294 13 -25 55
-102 95 -171 39 -69 71 -134 71 -145 0 -11 7 -29 15 -39 8 -10 24 -47 35 -82
12 -34 28 -65 36 -68 9 -3 14 -3 12 1 -1 5 -18 38 -36 75 -18 36 -37 90 -42
119 -13 67 -46 138 -98 213 -68 97 -119 265 -108 354 4 32 3 41 -3 27 -7 -14
-10 -15 -10 -5 -4 56 -22 145 -32 154 -9 8 -10 3 -6 -24z"/>
<path d="M2024 1413 c-7 -27 15 -80 45 -107 17 -15 81 -11 81 6 0 12 -100 128
-111 128 -5 0 -12 -12 -15 -27z"/>
<path d="M4420 1310 c0 -11 2 -20 5 -20 2 0 9 9 15 20 9 16 8 20 -5 20 -8 0
-15 -9 -15 -20z"/>
<path d="M1843 1270 c0 -30 2 -43 4 -27 2 15 2 39 0 55 -2 15 -4 2 -4 -28z"/>
<path d="M4470 1213 c0 -13 5 -23 10 -23 13 0 13 11 0 30 -8 12 -10 11 -10 -7z"/>
<path d="M1705 1198 c-3 -13 -1 -57 3 -98 l9 -75 2 98 c1 95 -3 119 -14 75z"/>
<path d="M4411 1205 c1 -19 18 -51 18 -35 0 8 -4 22 -9 30 -5 8 -9 11 -9 5z"/>
<path d="M1865 1125 c8 -52 48 -135 80 -165 35 -33 31 -13 -7 39 -17 24 -42
71 -55 105 -21 54 -23 57 -18 21z"/>
<path d="M1638 1042 c-10 -15 -27 -39 -38 -53 -24 -29 -39 -85 -40 -145 0 -52
-17 -101 -47 -137 -16 -20 -23 -40 -22 -65 1 -22 3 -28 6 -15 2 12 12 27 20
35 15 11 16 11 10 -5 -4 -10 -7 -22 -7 -27 0 -5 -7 -16 -17 -25 -16 -17 -18
-37 -13 -170 1 -54 3 -57 11 -30 5 17 7 51 4 76 -5 48 8 108 18 79 3 -8 10
-62 16 -120 14 -123 32 -220 42 -220 4 0 5 -10 2 -22 -4 -20 -3 -21 7 -6 8 13
8 23 0 38 -6 11 -18 100 -27 199 -16 179 -16 179 5 230 13 29 23 74 24 108 2
57 2 57 5 11 4 -47 14 -60 29 -37 4 6 8 66 10 133 2 66 8 136 14 155 12 44 9
47 -12 13z"/>
<path d="M4520 1060 c0 -5 7 -10 16 -10 8 0 12 5 9 10 -3 6 -10 10 -16 10 -5
0 -9 -4 -9 -10z"/>
<path d="M4423 1000 c0 -25 2 -35 4 -22 2 12 2 32 0 45 -2 12 -4 2 -4 -23z"/>
<path d="M4737 963 c14 -27 30 -55 37 -63 26 -34 47 -83 76 -176 17 -55 37
-119 45 -144 8 -25 17 -65 21 -90 l7 -45 -22 19 c-11 11 -21 29 -21 40 -1 12
-7 35 -15 51 -14 29 -14 28 -8 -25 7 -68 16 -86 46 -94 30 -7 47 -44 47 -104
0 -48 26 -132 41 -132 12 0 11 22 0 53 -5 13 -11 56 -14 94 -3 39 -9 79 -14
89 -6 11 -15 46 -22 79 -7 33 -16 76 -21 94 -5 19 -8 37 -5 39 8 8 29 -44 27
-69 -2 -18 10 -40 38 -71 34 -39 81 -125 80 -146 -1 -4 -14 9 -30 28 -30 34
-30 34 -30 9 0 -19 10 -32 37 -50 29 -19 40 -34 50 -74 7 -27 13 -65 13 -82 0
-23 5 -33 16 -33 12 0 14 7 10 27 -16 81 -18 103 -8 103 6 0 18 -21 27 -48 31
-86 34 -91 35 -57 l1 30 20 -27 c20 -27 49 -38 49 -19 0 17 -65 145 -98 193
-18 26 -75 116 -127 200 -52 84 -111 176 -130 203 -20 28 -59 88 -86 135 -45
78 -71 110 -90 110 -4 0 4 -21 18 -47z m403 -637 c0 -6 -11 5 -25 24 -14 19
-25 36 -25 39 0 10 49 -53 50 -63z"/>
<path d="M1516 968 c-35 -47 -79 -145 -83 -188 -8 -84 -9 -110 -3 -103 8 10
28 78 35 123 3 20 23 71 45 115 22 43 38 80 36 83 -2 2 -16 -12 -30 -30z"/>
<path d="M4627 943 c8 -50 30 -93 48 -93 8 0 15 2 15 3 0 7 -62 127 -65 127
-2 0 -1 -17 2 -37z"/>
<path d="M4557 914 c-12 -12 4 -24 34 -24 34 0 39 15 7 24 -29 7 -33 7 -41 0z"/>
<path d="M1671 871 c-1 -27 2 -32 11 -23 8 8 8 17 0 34 -10 22 -11 21 -11 -11z"/>
<path d="M4780 812 c0 -10 11 -29 25 -42 30 -28 32 -17 5 28 -22 36 -30 40
-30 14z"/>
<path d="M5055 801 c-3 -6 5 -20 18 -33 23 -22 90 -138 84 -144 -7 -8 -118 89
-131 113 -8 16 -24 37 -35 48 l-22 19 11 -29 c6 -17 28 -48 49 -70 66 -69 111
-148 118 -205 5 -47 9 -54 39 -66 38 -16 59 -51 75 -123 14 -68 33 -79 26 -15
-10 89 -19 119 -48 152 -19 21 -29 44 -29 64 0 17 -5 48 -11 67 -31 102 -32
92 9 85 20 -3 48 -13 61 -21 18 -11 22 -12 19 -2 -2 7 -33 25 -69 39 -53 21
-67 32 -82 63 -19 38 -71 75 -82 58z"/>
<path d="M1894 767 c3 -10 13 -43 22 -73 9 -31 18 -53 21 -50 6 6 -24 107 -38
126 -9 13 -10 12 -5 -3z"/>
<path d="M4592 758 c3 -7 12 -14 21 -16 12 -2 15 1 11 12 -7 19 -38 22 -32 4z"/>
<path d="M2061 710 c5 -23 21 -59 34 -80 14 -22 36 -64 49 -94 13 -30 38 -74
56 -98 40 -56 70 -98 124 -179 44 -64 76 -100 76 -83 0 14 -82 147 -120 194
-52 64 -127 181 -135 210 -4 14 -15 36 -25 50 -9 14 -27 46 -38 73 -26 58 -33
60 -21 7z"/>
<path d="M4714 617 c2 -37 8 -73 14 -79 18 -18 21 -6 10 42 -23 102 -26 107
-24 37z"/>
<path d="M1636 633 c-14 -21 -34 -49 -45 -63 -11 -14 -21 -29 -21 -35 0 -13
76 73 95 108 23 41 -1 33 -29 -10z"/>
<path d="M1429 583 c-11 -57 -3 -219 19 -368 14 -94 24 -14 12 102 -6 59 -12
156 -13 215 -1 60 -3 108 -4 108 -1 0 -7 -26 -14 -57z"/>
<path d="M4625 617 c-4 -15 -3 -33 3 -40 14 -17 25 -92 17 -117 -5 -16 -15
-20 -45 -20 -21 0 -41 -3 -44 -8 -2 -4 12 -6 33 -4 41 4 52 -5 68 -53 17 -50
29 -2 14 57 -7 27 -13 74 -13 106 0 32 -6 69 -13 82 l-13 25 -7 -28z"/>
<path d="M4776 584 c8 -69 19 -94 41 -94 11 0 14 6 8 23 -3 12 -11 41 -16 64
-6 23 -17 47 -25 54 -13 10 -14 4 -8 -47z"/>
<path d="M4512 575 c0 -16 2 -22 5 -12 2 9 2 23 0 30 -3 6 -5 -1 -5 -18z"/>
<path d="M5220 573 c0 -5 9 -18 20 -28 11 -10 20 -14 20 -8 0 5 -9 18 -20 28
-11 10 -20 14 -20 8z"/>
<path d="M1035 554 c-19 -16 -19 -16 5 -8 14 4 35 7 48 6 13 -1 20 2 17 8 -9
15 -47 11 -70 -6z"/>
<path d="M962 523 c-18 -8 -44 -29 -57 -45 -41 -49 -28 -51 20 -3 24 25 51 45
59 45 8 0 18 5 21 10 9 14 -5 12 -43 -7z"/>
<path d="M1087 478 c6 -64 24 -128 35 -128 6 0 8 10 4 23 -3 12 -11 50 -17 85
-12 70 -30 85 -22 20z"/>
<path d="M4811 370 c-1 -73 6 -110 22 -110 11 0 2 116 -13 152 -7 18 -9 7 -9
-42z"/>
<path d="M4437 339 c-3 -13 -1 -19 6 -16 15 5 22 37 9 37 -5 0 -12 -9 -15 -21z"/>
<path d="M920 324 c-24 -48 -24 -50 -1 -21 13 15 21 32 19 38 -2 6 -10 -2 -18
-17z"/>
<path d="M4890 309 c0 -37 11 -69 21 -63 14 8 10 47 -6 68 -15 19 -15 19 -15
-5z"/>
<path d="M5031 268 c-1 -26 3 -58 9 -72 12 -33 35 -35 25 -3 -4 12 -13 45 -20
72 l-13 50 -1 -47z"/>
<path d="M980 215 c0 -8 2 -15 4 -15 2 0 6 7 10 15 3 8 1 15 -4 15 -6 0 -10
-7 -10 -15z"/>
</g>
</svg>
